<?xml version="1.0" standalone="no"?>
<!DOCTYPE svg PUBLIC "-//W3C//DTD SVG 20010904//EN"
 "http://www.w3.org/TR/2001/REC-SVG-20010904/DTD/svg10.dtd">
<svg version="1.0" xmlns="http://www.w3.org/2000/svg"
 width="680.000000pt" height="680.000000pt" viewBox="0 0 680.000000 680.000000"
 preserveAspectRatio="xMidYMid meet">
<metadata>
Created by potrace 1.14, written by Peter Selinger 2001-2017
</metadata>
<g transform="translate(0.000000,680.000000) scale(0.100000,-0.100000)"
fill="#000000" stroke="none">
<path d="M3052 4951 c-10 -16 -42 -46 -71 -66 -30 -19 -65 -45 -78 -58 -62
-57 -93 -84 -117 -102 -15 -11 -42 -33 -61 -48 -35 -29 -69 -54 -138 -104 -22
-15 -53 -41 -70 -57 -44 -42 -146 -130 -200 -171 -24 -19 -79 -68 -121 -109
-42 -41 -91 -82 -108 -91 -18 -8 -49 -29 -68 -45 -19 -17 -44 -33 -55 -36 -49
-16 -54 -59 -11 -99 22 -21 28 -36 33 -89 4 -54 2 -72 -16 -110 -26 -53 -26
-118 0 -122 10 -1 50 -10 90 -19 41 -9 85 -19 99 -21 14 -3 43 -10 65 -16 22
-7 43 -12 48 -14 4 -1 8 -2 10 -4 1 -1 11 -3 21 -5 11 -2 53 -12 95 -22 42 -9
82 -17 89 -16 6 0 12 -5 12 -13 0 -17 -61 -138 -72 -142 -5 -2 -22 -34 -38
-70 -17 -37 -42 -89 -56 -115 -20 -37 -24 -57 -20 -90 l5 -42 -82 -39 c-94
-45 -292 -167 -319 -196 -16 -17 -16 -25 -6 -72 6 -29 12 -94 13 -145 2 -79
-1 -101 -26 -164 -17 -44 -26 -82 -23 -96 8 -30 47 -50 99 -52 22 0 65 -8 95
-16 63 -18 63 -18 150 -39 36 -9 83 -22 105 -28 22 -6 51 -13 65 -15 34 -4 52
-9 70 -16 19 -8 244 -64 285 -70 17 -3 41 -9 55 -15 38 -15 259 -69 313 -77
15 -2 32 -7 37 -10 6 -4 20 -8 33 -11 12 -2 33 -6 47 -10 25 -6 33 -7 104 -19
55 -9 86 -22 92 -39 9 -24 80 -5 89 25 4 10 11 19 16 19 6 0 8 -4 4 -9 -3 -5
4 -12 14 -16 13 -4 34 3 58 20 21 14 58 39 83 55 25 16 52 35 60 43 8 7 47 37
85 67 39 30 75 59 82 65 28 23 39 31 66 44 15 8 47 36 71 61 24 25 63 61 87
80 24 19 79 65 122 102 43 38 95 79 115 92 20 13 46 33 58 44 11 11 36 30 56
43 36 25 195 151 213 169 6 6 18 19 29 28 10 9 28 26 40 37 11 11 35 29 52 40
63 41 146 155 112 155 -5 0 -6 5 -3 10 12 20 16 202 5 260 -6 32 -20 80 -32
106 -11 26 -20 64 -20 86 1 47 -8 52 -113 67 -44 6 -100 16 -125 21 -86 19
-95 21 -132 27 -21 3 -38 10 -38 14 0 5 4 9 9 9 9 0 51 89 75 163 19 58 12
234 -12 282 -32 65 -68 115 -79 110 -7 -2 -13 2 -13 9 0 7 -7 19 -15 26 -10 8
-12 17 -6 24 23 29 33 183 16 269 -15 83 -93 180 -138 173 -12 -2 -30 1 -40 6
-24 12 -47 17 -133 27 -40 5 -76 11 -82 15 -5 3 -34 8 -63 11 -56 5 -69 7
-154 25 -27 6 -68 13 -90 14 -67 6 -149 17 -155 21 -3 2 -26 6 -50 10 -25 3
-53 8 -62 11 -30 9 -62 15 -133 24 -91 12 -200 36 -248 55 -37 15 -37 15 -55
-14z m1298 -781 c-6 -11 -16 -20 -22 -20 -6 0 -3 9 7 20 10 11 20 20 22 20 2
0 -1 -9 -7 -20z"/>
</g>
</svg>
